<svg width="55" height="55" viewBox="0 0 55 55" fill="none" xmlns="http://www.w3.org/2000/svg">
<path d="M49.9857 1.05093C49.0292 0.518646 47.9771 0.180148 46.8896 0.0547919C45.8021 -0.0705643 44.7005 0.0196791 43.648 0.320362C42.5954 0.621046 41.6124 1.12627 40.7552 1.80714C39.898 2.48802 39.1835 3.33118 38.6524 4.28843L23.1816 32.1301L14.3274 23.2759C13.5587 22.48 12.6391 21.8452 11.6224 21.4084C10.6057 20.9717 9.51224 20.7418 8.40575 20.7322C7.29925 20.7226 6.20192 20.9334 5.17778 21.3524C4.15365 21.7714 3.22322 22.3902 2.44078 23.1726C1.65834 23.9551 1.03956 24.8855 0.620555 25.9096C0.201547 26.9338 -0.0093005 28.0311 0.000314639 29.1376C0.00992978 30.2441 0.239815 31.3376 0.676557 32.3543C1.1133 33.371 1.74815 34.2905 2.54407 35.0593L19.2107 51.7259C20.7857 53.3051 22.9107 54.1718 25.1024 54.1718L26.2566 54.0884C27.5339 53.9097 28.7522 53.437 29.8158 52.7075C30.8794 51.978 31.7591 51.0115 32.3857 49.8843L53.2191 12.3843C53.751 11.4278 54.0893 10.376 54.2146 9.28876C54.34 8.20156 54.25 7.10032 53.9497 6.04791C53.6495 4.99551 53.1449 4.01254 52.4647 3.15516C51.7846 2.29777 50.9422 1.58275 49.9857 1.05093Z" fill="#90C841"/>
</svg>
